# xmcd
# 
# Track frame offsets:
#     150
#     3024
#     21394
#     30742
#     52667
#     70924
#     78951
#     101370
#     123235
#     153130
#     162887
# 
# Disc length: 2819
# 
# Revision: 3
# Processed by: cddbd v1.5.2PL0 Copyright (c) Steve Scherf et al.
# Submitted via: fre:ac v1.0.17
# 
DISCID=6f0b010b
DTITLE=Ibrahim Maalouf - Diasporas
DYEAR=2007
DGENRE=Jazz
TTITLE0=Intro
TTITLE1=DIASPORA
TTITLE2=Kanoun improvisation
TTITLE3=HASHISH
TTITLE4=MISSIN'YA (Night in Tunisia)
TTITLE5=Oud improvisation
TTITLE6=SHADOWS
TTITLE7=VERDICT
TTITLE8=LAST WISHES
TTITLE9=Trumpet improvisation
TTITLE10=1925 (special guest Vincent Ségal)
EXTD=YEAR: 2007
EXTT0=
EXTT1=
EXTT2=
EXTT3=
EXTT4=
EXTT5=
EXTT6=
EXTT7=
EXTT8=
EXTT9=
EXTT10=
PLAYORDER=
